<svg width="62" height="62" viewBox="0 0 42 42" fill="none" xmlns="http://www.w3.org/2000/svg">
<path d="M21.0001 0.166668C9.47925 0.166668 0.166748 9.47917 0.166748 21C0.166748 32.5208 9.47925 41.8333 21.0001 41.8333C32.5209 41.8333 41.8334 32.5208 41.8334 21C41.8334 9.47917 32.5209 0.166668 21.0001 0.166668ZM27.4584 10.7292C27.7501 10.7292 28.0417 10.8333 28.2917 11.0625L30.9376 13.7083C31.4167 14.1667 31.4167 14.8958 30.9376 15.3333L28.8542 17.4167L24.5834 13.1458L26.6667 11.0625C26.8751 10.8333 27.1667 10.7292 27.4584 10.7292ZM23.3542 14.3542L27.6459 18.6458L15.0209 31.2708H10.7292V26.9792L23.3542 14.3542Z" fill="#101010"/>
</svg>
