<svg width="76" height="87" viewBox="0 0 56 67" fill="none" xmlns="http://www.w3.org/2000/svg">
<path d="M28.1712 12.2808C35.3162 12.2808 42.121 15.0027 47.2246 20.1063C57.7721 30.6538 57.7721 48.006 47.2246 58.5535C41.1003 65.0181 32.5943 67.3997 24.4285 66.379L26.1297 59.5742C31.9138 60.2547 38.0381 58.2132 42.4613 53.7901C50.2868 45.9646 50.2868 33.0355 42.4613 24.8697C38.7186 21.1271 33.2748 19.0856 28.1712 19.0856V34.7367L11.1592 17.7247L28.1712 0.712646V12.2808ZM8.77748 58.5535C-0.0687613 49.7072 -1.42972 36.0976 4.6946 25.5502L9.7982 30.6538C6.05556 38.1391 7.41652 47.6658 13.8811 53.7901C15.5823 55.4913 17.6237 56.8523 20.0054 57.873L17.964 64.6778C14.5616 63.3168 11.4994 61.2754 8.77748 58.5535Z" fill="#101010"/>
</svg>
