<svg width="87" height="87" viewBox="0 0 69 69" fill="none" xmlns="http://www.w3.org/2000/svg">
<path d="M44.2312 48.44H37.4264V21.2207H44.2312M30.6216 48.44H23.8168V21.2207H30.6216M34.024 0.806335C29.5559 0.806335 25.1316 1.68639 21.0036 3.39626C16.8756 5.10613 13.1248 7.61232 9.96541 10.7717C3.58466 17.1525 0 25.8066 0 34.8304C0 43.8541 3.58466 52.5082 9.96541 58.889C13.1248 62.0484 16.8756 64.5546 21.0036 66.2645C25.1316 67.9743 29.5559 68.8544 34.024 68.8544C43.0478 68.8544 51.7019 65.2697 58.0826 58.889C64.4634 52.5082 68.048 43.8541 68.048 34.8304C68.048 30.3623 67.168 25.9379 65.4581 21.8099C63.7483 17.6819 61.2421 13.9312 58.0826 10.7717C54.9232 7.61232 51.1724 5.10613 47.0445 3.39626C42.9165 1.68639 38.4921 0.806335 34.024 0.806335Z" fill="#101010"/>
</svg>
