<svg width="87" height="87" viewBox="0 0 87 87"  xmlns="http://www.w3.org/2000/svg">
<path d="M34.9166 62.8125V24.1875L60.6666 43.5M43.4999 0.583333C37.864 0.583333 32.2833 1.69341 27.0764 3.85017C21.8695 6.00693 17.1384 9.16815 13.1533 13.1533C5.10482 21.2018 0.583252 32.1178 0.583252 43.5C0.583252 54.8822 5.10482 65.7982 13.1533 73.8467C17.1384 77.8319 21.8695 80.9931 27.0764 83.1498C32.2833 85.3066 37.864 86.4167 43.4999 86.4167C54.8821 86.4167 65.7982 81.8951 73.8466 73.8467C81.895 65.7982 86.4166 54.8822 86.4166 43.5C86.4166 37.8641 85.3065 32.2834 83.1498 27.0765C80.993 21.8696 77.8318 17.1385 73.8466 13.1533C69.8614 9.16815 65.1303 6.00693 59.9234 3.85017C54.7165 1.69341 49.1358 0.583333 43.4999 0.583333Z" />
</svg>
